G04 #@! TF.GenerationSoftware,KiCad,Pcbnew,(5.1.5-0-10_14)*
G04 #@! TF.CreationDate,2020-08-04T13:19:53-04:00*
G04 #@! TF.ProjectId,shio,7368696f-2e6b-4696-9361-645f70636258,rev?*
G04 #@! TF.SameCoordinates,Original*
G04 #@! TF.FileFunction,Other,ECO1*
%FSLAX46Y46*%
G04 Gerber Fmt 4.6, Leading zero omitted, Abs format (unit mm)*
G04 Created by KiCad (PCBNEW (5.1.5-0-10_14)) date 2020-08-04 13:19:53*
%MOMM*%
%LPD*%
G04 APERTURE LIST*
%ADD10C,0.100000*%
%ADD11C,0.025000*%
G04 APERTURE END LIST*
D10*
X146826190Y-113383333D02*
X147064285Y-113383333D01*
X146778571Y-113526190D02*
X146945238Y-113026190D01*
X147111904Y-113526190D01*
X147230952Y-113192857D02*
X147350000Y-113526190D01*
X147469047Y-113192857D01*
X147730952Y-113526190D02*
X147683333Y-113502380D01*
X147659523Y-113478571D01*
X147635714Y-113430952D01*
X147635714Y-113288095D01*
X147659523Y-113240476D01*
X147683333Y-113216666D01*
X147730952Y-113192857D01*
X147802380Y-113192857D01*
X147850000Y-113216666D01*
X147873809Y-113240476D01*
X147897619Y-113288095D01*
X147897619Y-113430952D01*
X147873809Y-113478571D01*
X147850000Y-113502380D01*
X147802380Y-113526190D01*
X147730952Y-113526190D01*
X148111904Y-113526190D02*
X148111904Y-113192857D01*
X148111904Y-113026190D02*
X148088095Y-113050000D01*
X148111904Y-113073809D01*
X148135714Y-113050000D01*
X148111904Y-113026190D01*
X148111904Y-113073809D01*
X148564285Y-113526190D02*
X148564285Y-113026190D01*
X148564285Y-113502380D02*
X148516666Y-113526190D01*
X148421428Y-113526190D01*
X148373809Y-113502380D01*
X148350000Y-113478571D01*
X148326190Y-113430952D01*
X148326190Y-113288095D01*
X148350000Y-113240476D01*
X148373809Y-113216666D01*
X148421428Y-113192857D01*
X148516666Y-113192857D01*
X148564285Y-113216666D01*
X149397619Y-113502380D02*
X149350000Y-113526190D01*
X149254761Y-113526190D01*
X149207142Y-113502380D01*
X149183333Y-113478571D01*
X149159523Y-113430952D01*
X149159523Y-113288095D01*
X149183333Y-113240476D01*
X149207142Y-113216666D01*
X149254761Y-113192857D01*
X149350000Y-113192857D01*
X149397619Y-113216666D01*
X149683333Y-113526190D02*
X149635714Y-113502380D01*
X149611904Y-113478571D01*
X149588095Y-113430952D01*
X149588095Y-113288095D01*
X149611904Y-113240476D01*
X149635714Y-113216666D01*
X149683333Y-113192857D01*
X149754761Y-113192857D01*
X149802380Y-113216666D01*
X149826190Y-113240476D01*
X149850000Y-113288095D01*
X149850000Y-113430952D01*
X149826190Y-113478571D01*
X149802380Y-113502380D01*
X149754761Y-113526190D01*
X149683333Y-113526190D01*
X150064285Y-113192857D02*
X150064285Y-113526190D01*
X150064285Y-113240476D02*
X150088095Y-113216666D01*
X150135714Y-113192857D01*
X150207142Y-113192857D01*
X150254761Y-113216666D01*
X150278571Y-113264285D01*
X150278571Y-113526190D01*
X150445238Y-113192857D02*
X150635714Y-113192857D01*
X150516666Y-113026190D02*
X150516666Y-113454761D01*
X150540476Y-113502380D01*
X150588095Y-113526190D01*
X150635714Y-113526190D01*
X151016666Y-113526190D02*
X151016666Y-113264285D01*
X150992857Y-113216666D01*
X150945238Y-113192857D01*
X150850000Y-113192857D01*
X150802380Y-113216666D01*
X151016666Y-113502380D02*
X150969047Y-113526190D01*
X150850000Y-113526190D01*
X150802380Y-113502380D01*
X150778571Y-113454761D01*
X150778571Y-113407142D01*
X150802380Y-113359523D01*
X150850000Y-113335714D01*
X150969047Y-113335714D01*
X151016666Y-113311904D01*
X151469047Y-113502380D02*
X151421428Y-113526190D01*
X151326190Y-113526190D01*
X151278571Y-113502380D01*
X151254761Y-113478571D01*
X151230952Y-113430952D01*
X151230952Y-113288095D01*
X151254761Y-113240476D01*
X151278571Y-113216666D01*
X151326190Y-113192857D01*
X151421428Y-113192857D01*
X151469047Y-113216666D01*
X151611904Y-113192857D02*
X151802380Y-113192857D01*
X151683333Y-113026190D02*
X151683333Y-113454761D01*
X151707142Y-113502380D01*
X151754761Y-113526190D01*
X151802380Y-113526190D01*
X152421428Y-113526190D02*
X152373809Y-113502380D01*
X152350000Y-113478571D01*
X152326190Y-113430952D01*
X152326190Y-113288095D01*
X152350000Y-113240476D01*
X152373809Y-113216666D01*
X152421428Y-113192857D01*
X152492857Y-113192857D01*
X152540476Y-113216666D01*
X152564285Y-113240476D01*
X152588095Y-113288095D01*
X152588095Y-113430952D01*
X152564285Y-113478571D01*
X152540476Y-113502380D01*
X152492857Y-113526190D01*
X152421428Y-113526190D01*
X152730952Y-113192857D02*
X152921428Y-113192857D01*
X152802380Y-113526190D02*
X152802380Y-113097619D01*
X152826190Y-113050000D01*
X152873809Y-113026190D01*
X152921428Y-113026190D01*
X146195238Y-114352380D02*
X146242857Y-114376190D01*
X146338095Y-114376190D01*
X146385714Y-114352380D01*
X146409523Y-114304761D01*
X146409523Y-114280952D01*
X146385714Y-114233333D01*
X146338095Y-114209523D01*
X146266666Y-114209523D01*
X146219047Y-114185714D01*
X146195238Y-114138095D01*
X146195238Y-114114285D01*
X146219047Y-114066666D01*
X146266666Y-114042857D01*
X146338095Y-114042857D01*
X146385714Y-114066666D01*
X146552380Y-114042857D02*
X146742857Y-114042857D01*
X146623809Y-113876190D02*
X146623809Y-114304761D01*
X146647619Y-114352380D01*
X146695238Y-114376190D01*
X146742857Y-114376190D01*
X146909523Y-114376190D02*
X146909523Y-114042857D01*
X146909523Y-113876190D02*
X146885714Y-113900000D01*
X146909523Y-113923809D01*
X146933333Y-113900000D01*
X146909523Y-113876190D01*
X146909523Y-113923809D01*
X147076190Y-114042857D02*
X147266666Y-114042857D01*
X147147619Y-114376190D02*
X147147619Y-113947619D01*
X147171428Y-113900000D01*
X147219047Y-113876190D01*
X147266666Y-113876190D01*
X147361904Y-114042857D02*
X147552380Y-114042857D01*
X147433333Y-114376190D02*
X147433333Y-113947619D01*
X147457142Y-113900000D01*
X147504761Y-113876190D01*
X147552380Y-113876190D01*
X147909523Y-114352380D02*
X147861904Y-114376190D01*
X147766666Y-114376190D01*
X147719047Y-114352380D01*
X147695238Y-114304761D01*
X147695238Y-114114285D01*
X147719047Y-114066666D01*
X147766666Y-114042857D01*
X147861904Y-114042857D01*
X147909523Y-114066666D01*
X147933333Y-114114285D01*
X147933333Y-114161904D01*
X147695238Y-114209523D01*
X148147619Y-114042857D02*
X148147619Y-114376190D01*
X148147619Y-114090476D02*
X148171428Y-114066666D01*
X148219047Y-114042857D01*
X148290476Y-114042857D01*
X148338095Y-114066666D01*
X148361904Y-114114285D01*
X148361904Y-114376190D01*
X148790476Y-114352380D02*
X148742857Y-114376190D01*
X148647619Y-114376190D01*
X148600000Y-114352380D01*
X148576190Y-114304761D01*
X148576190Y-114114285D01*
X148600000Y-114066666D01*
X148647619Y-114042857D01*
X148742857Y-114042857D01*
X148790476Y-114066666D01*
X148814285Y-114114285D01*
X148814285Y-114161904D01*
X148576190Y-114209523D01*
X149028571Y-114376190D02*
X149028571Y-114042857D01*
X149028571Y-114138095D02*
X149052380Y-114090476D01*
X149076190Y-114066666D01*
X149123809Y-114042857D01*
X149171428Y-114042857D01*
X149647619Y-114042857D02*
X149838095Y-114042857D01*
X149719047Y-113876190D02*
X149719047Y-114304761D01*
X149742857Y-114352380D01*
X149790476Y-114376190D01*
X149838095Y-114376190D01*
X150076190Y-114376190D02*
X150028571Y-114352380D01*
X150004761Y-114328571D01*
X149980952Y-114280952D01*
X149980952Y-114138095D01*
X150004761Y-114090476D01*
X150028571Y-114066666D01*
X150076190Y-114042857D01*
X150147619Y-114042857D01*
X150195238Y-114066666D01*
X150219047Y-114090476D01*
X150242857Y-114138095D01*
X150242857Y-114280952D01*
X150219047Y-114328571D01*
X150195238Y-114352380D01*
X150147619Y-114376190D01*
X150076190Y-114376190D01*
X150838095Y-114042857D02*
X150838095Y-114542857D01*
X150838095Y-114066666D02*
X150885714Y-114042857D01*
X150980952Y-114042857D01*
X151028571Y-114066666D01*
X151052380Y-114090476D01*
X151076190Y-114138095D01*
X151076190Y-114280952D01*
X151052380Y-114328571D01*
X151028571Y-114352380D01*
X150980952Y-114376190D01*
X150885714Y-114376190D01*
X150838095Y-114352380D01*
X151361904Y-114376190D02*
X151314285Y-114352380D01*
X151290476Y-114328571D01*
X151266666Y-114280952D01*
X151266666Y-114138095D01*
X151290476Y-114090476D01*
X151314285Y-114066666D01*
X151361904Y-114042857D01*
X151433333Y-114042857D01*
X151480952Y-114066666D01*
X151504761Y-114090476D01*
X151528571Y-114138095D01*
X151528571Y-114280952D01*
X151504761Y-114328571D01*
X151480952Y-114352380D01*
X151433333Y-114376190D01*
X151361904Y-114376190D01*
X151719047Y-114352380D02*
X151766666Y-114376190D01*
X151861904Y-114376190D01*
X151909523Y-114352380D01*
X151933333Y-114304761D01*
X151933333Y-114280952D01*
X151909523Y-114233333D01*
X151861904Y-114209523D01*
X151790476Y-114209523D01*
X151742857Y-114185714D01*
X151719047Y-114138095D01*
X151719047Y-114114285D01*
X151742857Y-114066666D01*
X151790476Y-114042857D01*
X151861904Y-114042857D01*
X151909523Y-114066666D01*
X152076190Y-114042857D02*
X152266666Y-114042857D01*
X152147619Y-113876190D02*
X152147619Y-114304761D01*
X152171428Y-114352380D01*
X152219047Y-114376190D01*
X152266666Y-114376190D01*
X152433333Y-114376190D02*
X152433333Y-114042857D01*
X152433333Y-113876190D02*
X152409523Y-113900000D01*
X152433333Y-113923809D01*
X152457142Y-113900000D01*
X152433333Y-113876190D01*
X152433333Y-113923809D01*
X152623809Y-114042857D02*
X152742857Y-114376190D01*
X152861904Y-114042857D01*
X153052380Y-114376190D02*
X153052380Y-114042857D01*
X153052380Y-113876190D02*
X153028571Y-113900000D01*
X153052380Y-113923809D01*
X153076190Y-113900000D01*
X153052380Y-113876190D01*
X153052380Y-113923809D01*
X153480952Y-114352380D02*
X153433333Y-114376190D01*
X153338095Y-114376190D01*
X153290476Y-114352380D01*
X153266666Y-114304761D01*
X153266666Y-114114285D01*
X153290476Y-114066666D01*
X153338095Y-114042857D01*
X153433333Y-114042857D01*
X153480952Y-114066666D01*
X153504761Y-114114285D01*
X153504761Y-114161904D01*
X153266666Y-114209523D01*
X145861904Y-115226190D02*
X145861904Y-114726190D01*
X145861904Y-114916666D02*
X145909523Y-114892857D01*
X146004761Y-114892857D01*
X146052380Y-114916666D01*
X146076190Y-114940476D01*
X146100000Y-114988095D01*
X146100000Y-115130952D01*
X146076190Y-115178571D01*
X146052380Y-115202380D01*
X146004761Y-115226190D01*
X145909523Y-115226190D01*
X145861904Y-115202380D01*
X146528571Y-115226190D02*
X146528571Y-114964285D01*
X146504761Y-114916666D01*
X146457142Y-114892857D01*
X146361904Y-114892857D01*
X146314285Y-114916666D01*
X146528571Y-115202380D02*
X146480952Y-115226190D01*
X146361904Y-115226190D01*
X146314285Y-115202380D01*
X146290476Y-115154761D01*
X146290476Y-115107142D01*
X146314285Y-115059523D01*
X146361904Y-115035714D01*
X146480952Y-115035714D01*
X146528571Y-115011904D01*
X146695238Y-114892857D02*
X146885714Y-114892857D01*
X146766666Y-114726190D02*
X146766666Y-115154761D01*
X146790476Y-115202380D01*
X146838095Y-115226190D01*
X146885714Y-115226190D01*
X146980952Y-114892857D02*
X147171428Y-114892857D01*
X147052380Y-114726190D02*
X147052380Y-115154761D01*
X147076190Y-115202380D01*
X147123809Y-115226190D01*
X147171428Y-115226190D01*
X147528571Y-115202380D02*
X147480952Y-115226190D01*
X147385714Y-115226190D01*
X147338095Y-115202380D01*
X147314285Y-115154761D01*
X147314285Y-114964285D01*
X147338095Y-114916666D01*
X147385714Y-114892857D01*
X147480952Y-114892857D01*
X147528571Y-114916666D01*
X147552380Y-114964285D01*
X147552380Y-115011904D01*
X147314285Y-115059523D01*
X147766666Y-115226190D02*
X147766666Y-114892857D01*
X147766666Y-114988095D02*
X147790476Y-114940476D01*
X147814285Y-114916666D01*
X147861904Y-114892857D01*
X147909523Y-114892857D01*
X148028571Y-114892857D02*
X148147619Y-115226190D01*
X148266666Y-114892857D02*
X148147619Y-115226190D01*
X148100000Y-115345238D01*
X148076190Y-115369047D01*
X148028571Y-115392857D01*
X148766666Y-114892857D02*
X148957142Y-114892857D01*
X148838095Y-114726190D02*
X148838095Y-115154761D01*
X148861904Y-115202380D01*
X148909523Y-115226190D01*
X148957142Y-115226190D01*
X149123809Y-115226190D02*
X149123809Y-114726190D01*
X149338095Y-115226190D02*
X149338095Y-114964285D01*
X149314285Y-114916666D01*
X149266666Y-114892857D01*
X149195238Y-114892857D01*
X149147619Y-114916666D01*
X149123809Y-114940476D01*
X149576190Y-115226190D02*
X149576190Y-114892857D01*
X149576190Y-114988095D02*
X149600000Y-114940476D01*
X149623809Y-114916666D01*
X149671428Y-114892857D01*
X149719047Y-114892857D01*
X149957142Y-115226190D02*
X149909523Y-115202380D01*
X149885714Y-115178571D01*
X149861904Y-115130952D01*
X149861904Y-114988095D01*
X149885714Y-114940476D01*
X149909523Y-114916666D01*
X149957142Y-114892857D01*
X150028571Y-114892857D01*
X150076190Y-114916666D01*
X150100000Y-114940476D01*
X150123809Y-114988095D01*
X150123809Y-115130952D01*
X150100000Y-115178571D01*
X150076190Y-115202380D01*
X150028571Y-115226190D01*
X149957142Y-115226190D01*
X150552380Y-114892857D02*
X150552380Y-115226190D01*
X150338095Y-114892857D02*
X150338095Y-115154761D01*
X150361904Y-115202380D01*
X150409523Y-115226190D01*
X150480952Y-115226190D01*
X150528571Y-115202380D01*
X150552380Y-115178571D01*
X151004761Y-114892857D02*
X151004761Y-115297619D01*
X150980952Y-115345238D01*
X150957142Y-115369047D01*
X150909523Y-115392857D01*
X150838095Y-115392857D01*
X150790476Y-115369047D01*
X151004761Y-115202380D02*
X150957142Y-115226190D01*
X150861904Y-115226190D01*
X150814285Y-115202380D01*
X150790476Y-115178571D01*
X150766666Y-115130952D01*
X150766666Y-114988095D01*
X150790476Y-114940476D01*
X150814285Y-114916666D01*
X150861904Y-114892857D01*
X150957142Y-114892857D01*
X151004761Y-114916666D01*
X151242857Y-115226190D02*
X151242857Y-114726190D01*
X151457142Y-115226190D02*
X151457142Y-114964285D01*
X151433333Y-114916666D01*
X151385714Y-114892857D01*
X151314285Y-114892857D01*
X151266666Y-114916666D01*
X151242857Y-114940476D01*
X152076190Y-115226190D02*
X152076190Y-114726190D01*
X152290476Y-115226190D02*
X152290476Y-114964285D01*
X152266666Y-114916666D01*
X152219047Y-114892857D01*
X152147619Y-114892857D01*
X152100000Y-114916666D01*
X152076190Y-114940476D01*
X152600000Y-115226190D02*
X152552380Y-115202380D01*
X152528571Y-115178571D01*
X152504761Y-115130952D01*
X152504761Y-114988095D01*
X152528571Y-114940476D01*
X152552380Y-114916666D01*
X152600000Y-114892857D01*
X152671428Y-114892857D01*
X152719047Y-114916666D01*
X152742857Y-114940476D01*
X152766666Y-114988095D01*
X152766666Y-115130952D01*
X152742857Y-115178571D01*
X152719047Y-115202380D01*
X152671428Y-115226190D01*
X152600000Y-115226190D01*
X153052380Y-115226190D02*
X153004761Y-115202380D01*
X152980952Y-115154761D01*
X152980952Y-114726190D01*
X153433333Y-115202380D02*
X153385714Y-115226190D01*
X153290476Y-115226190D01*
X153242857Y-115202380D01*
X153219047Y-115154761D01*
X153219047Y-114964285D01*
X153242857Y-114916666D01*
X153290476Y-114892857D01*
X153385714Y-114892857D01*
X153433333Y-114916666D01*
X153457142Y-114964285D01*
X153457142Y-115011904D01*
X153219047Y-115059523D01*
X153647619Y-115202380D02*
X153695238Y-115226190D01*
X153790476Y-115226190D01*
X153838095Y-115202380D01*
X153861904Y-115154761D01*
X153861904Y-115130952D01*
X153838095Y-115083333D01*
X153790476Y-115059523D01*
X153719047Y-115059523D01*
X153671428Y-115035714D01*
X153647619Y-114988095D01*
X153647619Y-114964285D01*
X153671428Y-114916666D01*
X153719047Y-114892857D01*
X153790476Y-114892857D01*
X153838095Y-114916666D01*
X147126190Y-85833333D02*
X147364285Y-85833333D01*
X147078571Y-85976190D02*
X147245238Y-85476190D01*
X147411904Y-85976190D01*
X147530952Y-85642857D02*
X147650000Y-85976190D01*
X147769047Y-85642857D01*
X148030952Y-85976190D02*
X147983333Y-85952380D01*
X147959523Y-85928571D01*
X147935714Y-85880952D01*
X147935714Y-85738095D01*
X147959523Y-85690476D01*
X147983333Y-85666666D01*
X148030952Y-85642857D01*
X148102380Y-85642857D01*
X148150000Y-85666666D01*
X148173809Y-85690476D01*
X148197619Y-85738095D01*
X148197619Y-85880952D01*
X148173809Y-85928571D01*
X148150000Y-85952380D01*
X148102380Y-85976190D01*
X148030952Y-85976190D01*
X148411904Y-85976190D02*
X148411904Y-85642857D01*
X148411904Y-85476190D02*
X148388095Y-85500000D01*
X148411904Y-85523809D01*
X148435714Y-85500000D01*
X148411904Y-85476190D01*
X148411904Y-85523809D01*
X148864285Y-85976190D02*
X148864285Y-85476190D01*
X148864285Y-85952380D02*
X148816666Y-85976190D01*
X148721428Y-85976190D01*
X148673809Y-85952380D01*
X148650000Y-85928571D01*
X148626190Y-85880952D01*
X148626190Y-85738095D01*
X148650000Y-85690476D01*
X148673809Y-85666666D01*
X148721428Y-85642857D01*
X148816666Y-85642857D01*
X148864285Y-85666666D01*
X149697619Y-85952380D02*
X149650000Y-85976190D01*
X149554761Y-85976190D01*
X149507142Y-85952380D01*
X149483333Y-85928571D01*
X149459523Y-85880952D01*
X149459523Y-85738095D01*
X149483333Y-85690476D01*
X149507142Y-85666666D01*
X149554761Y-85642857D01*
X149650000Y-85642857D01*
X149697619Y-85666666D01*
X149983333Y-85976190D02*
X149935714Y-85952380D01*
X149911904Y-85928571D01*
X149888095Y-85880952D01*
X149888095Y-85738095D01*
X149911904Y-85690476D01*
X149935714Y-85666666D01*
X149983333Y-85642857D01*
X150054761Y-85642857D01*
X150102380Y-85666666D01*
X150126190Y-85690476D01*
X150150000Y-85738095D01*
X150150000Y-85880952D01*
X150126190Y-85928571D01*
X150102380Y-85952380D01*
X150054761Y-85976190D01*
X149983333Y-85976190D01*
X150364285Y-85642857D02*
X150364285Y-85976190D01*
X150364285Y-85690476D02*
X150388095Y-85666666D01*
X150435714Y-85642857D01*
X150507142Y-85642857D01*
X150554761Y-85666666D01*
X150578571Y-85714285D01*
X150578571Y-85976190D01*
X150745238Y-85642857D02*
X150935714Y-85642857D01*
X150816666Y-85476190D02*
X150816666Y-85904761D01*
X150840476Y-85952380D01*
X150888095Y-85976190D01*
X150935714Y-85976190D01*
X151316666Y-85976190D02*
X151316666Y-85714285D01*
X151292857Y-85666666D01*
X151245238Y-85642857D01*
X151150000Y-85642857D01*
X151102380Y-85666666D01*
X151316666Y-85952380D02*
X151269047Y-85976190D01*
X151150000Y-85976190D01*
X151102380Y-85952380D01*
X151078571Y-85904761D01*
X151078571Y-85857142D01*
X151102380Y-85809523D01*
X151150000Y-85785714D01*
X151269047Y-85785714D01*
X151316666Y-85761904D01*
X151769047Y-85952380D02*
X151721428Y-85976190D01*
X151626190Y-85976190D01*
X151578571Y-85952380D01*
X151554761Y-85928571D01*
X151530952Y-85880952D01*
X151530952Y-85738095D01*
X151554761Y-85690476D01*
X151578571Y-85666666D01*
X151626190Y-85642857D01*
X151721428Y-85642857D01*
X151769047Y-85666666D01*
X151911904Y-85642857D02*
X152102380Y-85642857D01*
X151983333Y-85476190D02*
X151983333Y-85904761D01*
X152007142Y-85952380D01*
X152054761Y-85976190D01*
X152102380Y-85976190D01*
X152721428Y-85976190D02*
X152673809Y-85952380D01*
X152650000Y-85928571D01*
X152626190Y-85880952D01*
X152626190Y-85738095D01*
X152650000Y-85690476D01*
X152673809Y-85666666D01*
X152721428Y-85642857D01*
X152792857Y-85642857D01*
X152840476Y-85666666D01*
X152864285Y-85690476D01*
X152888095Y-85738095D01*
X152888095Y-85880952D01*
X152864285Y-85928571D01*
X152840476Y-85952380D01*
X152792857Y-85976190D01*
X152721428Y-85976190D01*
X153030952Y-85642857D02*
X153221428Y-85642857D01*
X153102380Y-85976190D02*
X153102380Y-85547619D01*
X153126190Y-85500000D01*
X153173809Y-85476190D01*
X153221428Y-85476190D01*
X146495238Y-86802380D02*
X146542857Y-86826190D01*
X146638095Y-86826190D01*
X146685714Y-86802380D01*
X146709523Y-86754761D01*
X146709523Y-86730952D01*
X146685714Y-86683333D01*
X146638095Y-86659523D01*
X146566666Y-86659523D01*
X146519047Y-86635714D01*
X146495238Y-86588095D01*
X146495238Y-86564285D01*
X146519047Y-86516666D01*
X146566666Y-86492857D01*
X146638095Y-86492857D01*
X146685714Y-86516666D01*
X146852380Y-86492857D02*
X147042857Y-86492857D01*
X146923809Y-86326190D02*
X146923809Y-86754761D01*
X146947619Y-86802380D01*
X146995238Y-86826190D01*
X147042857Y-86826190D01*
X147209523Y-86826190D02*
X147209523Y-86492857D01*
X147209523Y-86326190D02*
X147185714Y-86350000D01*
X147209523Y-86373809D01*
X147233333Y-86350000D01*
X147209523Y-86326190D01*
X147209523Y-86373809D01*
X147376190Y-86492857D02*
X147566666Y-86492857D01*
X147447619Y-86826190D02*
X147447619Y-86397619D01*
X147471428Y-86350000D01*
X147519047Y-86326190D01*
X147566666Y-86326190D01*
X147661904Y-86492857D02*
X147852380Y-86492857D01*
X147733333Y-86826190D02*
X147733333Y-86397619D01*
X147757142Y-86350000D01*
X147804761Y-86326190D01*
X147852380Y-86326190D01*
X148209523Y-86802380D02*
X148161904Y-86826190D01*
X148066666Y-86826190D01*
X148019047Y-86802380D01*
X147995238Y-86754761D01*
X147995238Y-86564285D01*
X148019047Y-86516666D01*
X148066666Y-86492857D01*
X148161904Y-86492857D01*
X148209523Y-86516666D01*
X148233333Y-86564285D01*
X148233333Y-86611904D01*
X147995238Y-86659523D01*
X148447619Y-86492857D02*
X148447619Y-86826190D01*
X148447619Y-86540476D02*
X148471428Y-86516666D01*
X148519047Y-86492857D01*
X148590476Y-86492857D01*
X148638095Y-86516666D01*
X148661904Y-86564285D01*
X148661904Y-86826190D01*
X149090476Y-86802380D02*
X149042857Y-86826190D01*
X148947619Y-86826190D01*
X148900000Y-86802380D01*
X148876190Y-86754761D01*
X148876190Y-86564285D01*
X148900000Y-86516666D01*
X148947619Y-86492857D01*
X149042857Y-86492857D01*
X149090476Y-86516666D01*
X149114285Y-86564285D01*
X149114285Y-86611904D01*
X148876190Y-86659523D01*
X149328571Y-86826190D02*
X149328571Y-86492857D01*
X149328571Y-86588095D02*
X149352380Y-86540476D01*
X149376190Y-86516666D01*
X149423809Y-86492857D01*
X149471428Y-86492857D01*
X149947619Y-86492857D02*
X150138095Y-86492857D01*
X150019047Y-86326190D02*
X150019047Y-86754761D01*
X150042857Y-86802380D01*
X150090476Y-86826190D01*
X150138095Y-86826190D01*
X150376190Y-86826190D02*
X150328571Y-86802380D01*
X150304761Y-86778571D01*
X150280952Y-86730952D01*
X150280952Y-86588095D01*
X150304761Y-86540476D01*
X150328571Y-86516666D01*
X150376190Y-86492857D01*
X150447619Y-86492857D01*
X150495238Y-86516666D01*
X150519047Y-86540476D01*
X150542857Y-86588095D01*
X150542857Y-86730952D01*
X150519047Y-86778571D01*
X150495238Y-86802380D01*
X150447619Y-86826190D01*
X150376190Y-86826190D01*
X151138095Y-86492857D02*
X151138095Y-86992857D01*
X151138095Y-86516666D02*
X151185714Y-86492857D01*
X151280952Y-86492857D01*
X151328571Y-86516666D01*
X151352380Y-86540476D01*
X151376190Y-86588095D01*
X151376190Y-86730952D01*
X151352380Y-86778571D01*
X151328571Y-86802380D01*
X151280952Y-86826190D01*
X151185714Y-86826190D01*
X151138095Y-86802380D01*
X151661904Y-86826190D02*
X151614285Y-86802380D01*
X151590476Y-86778571D01*
X151566666Y-86730952D01*
X151566666Y-86588095D01*
X151590476Y-86540476D01*
X151614285Y-86516666D01*
X151661904Y-86492857D01*
X151733333Y-86492857D01*
X151780952Y-86516666D01*
X151804761Y-86540476D01*
X151828571Y-86588095D01*
X151828571Y-86730952D01*
X151804761Y-86778571D01*
X151780952Y-86802380D01*
X151733333Y-86826190D01*
X151661904Y-86826190D01*
X152019047Y-86802380D02*
X152066666Y-86826190D01*
X152161904Y-86826190D01*
X152209523Y-86802380D01*
X152233333Y-86754761D01*
X152233333Y-86730952D01*
X152209523Y-86683333D01*
X152161904Y-86659523D01*
X152090476Y-86659523D01*
X152042857Y-86635714D01*
X152019047Y-86588095D01*
X152019047Y-86564285D01*
X152042857Y-86516666D01*
X152090476Y-86492857D01*
X152161904Y-86492857D01*
X152209523Y-86516666D01*
X152376190Y-86492857D02*
X152566666Y-86492857D01*
X152447619Y-86326190D02*
X152447619Y-86754761D01*
X152471428Y-86802380D01*
X152519047Y-86826190D01*
X152566666Y-86826190D01*
X152733333Y-86826190D02*
X152733333Y-86492857D01*
X152733333Y-86326190D02*
X152709523Y-86350000D01*
X152733333Y-86373809D01*
X152757142Y-86350000D01*
X152733333Y-86326190D01*
X152733333Y-86373809D01*
X152923809Y-86492857D02*
X153042857Y-86826190D01*
X153161904Y-86492857D01*
X153352380Y-86826190D02*
X153352380Y-86492857D01*
X153352380Y-86326190D02*
X153328571Y-86350000D01*
X153352380Y-86373809D01*
X153376190Y-86350000D01*
X153352380Y-86326190D01*
X153352380Y-86373809D01*
X153780952Y-86802380D02*
X153733333Y-86826190D01*
X153638095Y-86826190D01*
X153590476Y-86802380D01*
X153566666Y-86754761D01*
X153566666Y-86564285D01*
X153590476Y-86516666D01*
X153638095Y-86492857D01*
X153733333Y-86492857D01*
X153780952Y-86516666D01*
X153804761Y-86564285D01*
X153804761Y-86611904D01*
X153566666Y-86659523D01*
X146161904Y-87676190D02*
X146161904Y-87176190D01*
X146161904Y-87366666D02*
X146209523Y-87342857D01*
X146304761Y-87342857D01*
X146352380Y-87366666D01*
X146376190Y-87390476D01*
X146400000Y-87438095D01*
X146400000Y-87580952D01*
X146376190Y-87628571D01*
X146352380Y-87652380D01*
X146304761Y-87676190D01*
X146209523Y-87676190D01*
X146161904Y-87652380D01*
X146828571Y-87676190D02*
X146828571Y-87414285D01*
X146804761Y-87366666D01*
X146757142Y-87342857D01*
X146661904Y-87342857D01*
X146614285Y-87366666D01*
X146828571Y-87652380D02*
X146780952Y-87676190D01*
X146661904Y-87676190D01*
X146614285Y-87652380D01*
X146590476Y-87604761D01*
X146590476Y-87557142D01*
X146614285Y-87509523D01*
X146661904Y-87485714D01*
X146780952Y-87485714D01*
X146828571Y-87461904D01*
X146995238Y-87342857D02*
X147185714Y-87342857D01*
X147066666Y-87176190D02*
X147066666Y-87604761D01*
X147090476Y-87652380D01*
X147138095Y-87676190D01*
X147185714Y-87676190D01*
X147280952Y-87342857D02*
X147471428Y-87342857D01*
X147352380Y-87176190D02*
X147352380Y-87604761D01*
X147376190Y-87652380D01*
X147423809Y-87676190D01*
X147471428Y-87676190D01*
X147828571Y-87652380D02*
X147780952Y-87676190D01*
X147685714Y-87676190D01*
X147638095Y-87652380D01*
X147614285Y-87604761D01*
X147614285Y-87414285D01*
X147638095Y-87366666D01*
X147685714Y-87342857D01*
X147780952Y-87342857D01*
X147828571Y-87366666D01*
X147852380Y-87414285D01*
X147852380Y-87461904D01*
X147614285Y-87509523D01*
X148066666Y-87676190D02*
X148066666Y-87342857D01*
X148066666Y-87438095D02*
X148090476Y-87390476D01*
X148114285Y-87366666D01*
X148161904Y-87342857D01*
X148209523Y-87342857D01*
X148328571Y-87342857D02*
X148447619Y-87676190D01*
X148566666Y-87342857D02*
X148447619Y-87676190D01*
X148400000Y-87795238D01*
X148376190Y-87819047D01*
X148328571Y-87842857D01*
X149066666Y-87342857D02*
X149257142Y-87342857D01*
X149138095Y-87176190D02*
X149138095Y-87604761D01*
X149161904Y-87652380D01*
X149209523Y-87676190D01*
X149257142Y-87676190D01*
X149423809Y-87676190D02*
X149423809Y-87176190D01*
X149638095Y-87676190D02*
X149638095Y-87414285D01*
X149614285Y-87366666D01*
X149566666Y-87342857D01*
X149495238Y-87342857D01*
X149447619Y-87366666D01*
X149423809Y-87390476D01*
X149876190Y-87676190D02*
X149876190Y-87342857D01*
X149876190Y-87438095D02*
X149900000Y-87390476D01*
X149923809Y-87366666D01*
X149971428Y-87342857D01*
X150019047Y-87342857D01*
X150257142Y-87676190D02*
X150209523Y-87652380D01*
X150185714Y-87628571D01*
X150161904Y-87580952D01*
X150161904Y-87438095D01*
X150185714Y-87390476D01*
X150209523Y-87366666D01*
X150257142Y-87342857D01*
X150328571Y-87342857D01*
X150376190Y-87366666D01*
X150400000Y-87390476D01*
X150423809Y-87438095D01*
X150423809Y-87580952D01*
X150400000Y-87628571D01*
X150376190Y-87652380D01*
X150328571Y-87676190D01*
X150257142Y-87676190D01*
X150852380Y-87342857D02*
X150852380Y-87676190D01*
X150638095Y-87342857D02*
X150638095Y-87604761D01*
X150661904Y-87652380D01*
X150709523Y-87676190D01*
X150780952Y-87676190D01*
X150828571Y-87652380D01*
X150852380Y-87628571D01*
X151304761Y-87342857D02*
X151304761Y-87747619D01*
X151280952Y-87795238D01*
X151257142Y-87819047D01*
X151209523Y-87842857D01*
X151138095Y-87842857D01*
X151090476Y-87819047D01*
X151304761Y-87652380D02*
X151257142Y-87676190D01*
X151161904Y-87676190D01*
X151114285Y-87652380D01*
X151090476Y-87628571D01*
X151066666Y-87580952D01*
X151066666Y-87438095D01*
X151090476Y-87390476D01*
X151114285Y-87366666D01*
X151161904Y-87342857D01*
X151257142Y-87342857D01*
X151304761Y-87366666D01*
X151542857Y-87676190D02*
X151542857Y-87176190D01*
X151757142Y-87676190D02*
X151757142Y-87414285D01*
X151733333Y-87366666D01*
X151685714Y-87342857D01*
X151614285Y-87342857D01*
X151566666Y-87366666D01*
X151542857Y-87390476D01*
X152376190Y-87676190D02*
X152376190Y-87176190D01*
X152590476Y-87676190D02*
X152590476Y-87414285D01*
X152566666Y-87366666D01*
X152519047Y-87342857D01*
X152447619Y-87342857D01*
X152400000Y-87366666D01*
X152376190Y-87390476D01*
X152900000Y-87676190D02*
X152852380Y-87652380D01*
X152828571Y-87628571D01*
X152804761Y-87580952D01*
X152804761Y-87438095D01*
X152828571Y-87390476D01*
X152852380Y-87366666D01*
X152900000Y-87342857D01*
X152971428Y-87342857D01*
X153019047Y-87366666D01*
X153042857Y-87390476D01*
X153066666Y-87438095D01*
X153066666Y-87580952D01*
X153042857Y-87628571D01*
X153019047Y-87652380D01*
X152971428Y-87676190D01*
X152900000Y-87676190D01*
X153352380Y-87676190D02*
X153304761Y-87652380D01*
X153280952Y-87604761D01*
X153280952Y-87176190D01*
X153733333Y-87652380D02*
X153685714Y-87676190D01*
X153590476Y-87676190D01*
X153542857Y-87652380D01*
X153519047Y-87604761D01*
X153519047Y-87414285D01*
X153542857Y-87366666D01*
X153590476Y-87342857D01*
X153685714Y-87342857D01*
X153733333Y-87366666D01*
X153757142Y-87414285D01*
X153757142Y-87461904D01*
X153519047Y-87509523D01*
X153947619Y-87652380D02*
X153995238Y-87676190D01*
X154090476Y-87676190D01*
X154138095Y-87652380D01*
X154161904Y-87604761D01*
X154161904Y-87580952D01*
X154138095Y-87533333D01*
X154090476Y-87509523D01*
X154019047Y-87509523D01*
X153971428Y-87485714D01*
X153947619Y-87438095D01*
X153947619Y-87414285D01*
X153971428Y-87366666D01*
X154019047Y-87342857D01*
X154090476Y-87342857D01*
X154138095Y-87366666D01*
X139119761Y-98028571D02*
X139095952Y-98052380D01*
X139024523Y-98076190D01*
X138976904Y-98076190D01*
X138905476Y-98052380D01*
X138857857Y-98004761D01*
X138834047Y-97957142D01*
X138810238Y-97861904D01*
X138810238Y-97790476D01*
X138834047Y-97695238D01*
X138857857Y-97647619D01*
X138905476Y-97600000D01*
X138976904Y-97576190D01*
X139024523Y-97576190D01*
X139095952Y-97600000D01*
X139119761Y-97623809D01*
X139548333Y-98076190D02*
X139548333Y-97814285D01*
X139524523Y-97766666D01*
X139476904Y-97742857D01*
X139381666Y-97742857D01*
X139334047Y-97766666D01*
X139548333Y-98052380D02*
X139500714Y-98076190D01*
X139381666Y-98076190D01*
X139334047Y-98052380D01*
X139310238Y-98004761D01*
X139310238Y-97957142D01*
X139334047Y-97909523D01*
X139381666Y-97885714D01*
X139500714Y-97885714D01*
X139548333Y-97861904D01*
X139786428Y-97742857D02*
X139786428Y-98076190D01*
X139786428Y-97790476D02*
X139810238Y-97766666D01*
X139857857Y-97742857D01*
X139929285Y-97742857D01*
X139976904Y-97766666D01*
X140000714Y-97814285D01*
X140000714Y-98076190D01*
X140619761Y-98076190D02*
X140619761Y-97576190D01*
X140619761Y-97766666D02*
X140667380Y-97742857D01*
X140762619Y-97742857D01*
X140810238Y-97766666D01*
X140834047Y-97790476D01*
X140857857Y-97838095D01*
X140857857Y-97980952D01*
X140834047Y-98028571D01*
X140810238Y-98052380D01*
X140762619Y-98076190D01*
X140667380Y-98076190D01*
X140619761Y-98052380D01*
X141262619Y-98052380D02*
X141215000Y-98076190D01*
X141119761Y-98076190D01*
X141072142Y-98052380D01*
X141048333Y-98004761D01*
X141048333Y-97814285D01*
X141072142Y-97766666D01*
X141119761Y-97742857D01*
X141215000Y-97742857D01*
X141262619Y-97766666D01*
X141286428Y-97814285D01*
X141286428Y-97861904D01*
X141048333Y-97909523D01*
X142095952Y-97742857D02*
X142095952Y-98147619D01*
X142072142Y-98195238D01*
X142048333Y-98219047D01*
X142000714Y-98242857D01*
X141929285Y-98242857D01*
X141881666Y-98219047D01*
X142095952Y-98052380D02*
X142048333Y-98076190D01*
X141953095Y-98076190D01*
X141905476Y-98052380D01*
X141881666Y-98028571D01*
X141857857Y-97980952D01*
X141857857Y-97838095D01*
X141881666Y-97790476D01*
X141905476Y-97766666D01*
X141953095Y-97742857D01*
X142048333Y-97742857D01*
X142095952Y-97766666D01*
X142334047Y-98076190D02*
X142334047Y-97742857D01*
X142334047Y-97838095D02*
X142357857Y-97790476D01*
X142381666Y-97766666D01*
X142429285Y-97742857D01*
X142476904Y-97742857D01*
X142715000Y-98076190D02*
X142667380Y-98052380D01*
X142643571Y-98028571D01*
X142619761Y-97980952D01*
X142619761Y-97838095D01*
X142643571Y-97790476D01*
X142667380Y-97766666D01*
X142715000Y-97742857D01*
X142786428Y-97742857D01*
X142834047Y-97766666D01*
X142857857Y-97790476D01*
X142881666Y-97838095D01*
X142881666Y-97980952D01*
X142857857Y-98028571D01*
X142834047Y-98052380D01*
X142786428Y-98076190D01*
X142715000Y-98076190D01*
X143310238Y-97742857D02*
X143310238Y-98076190D01*
X143095952Y-97742857D02*
X143095952Y-98004761D01*
X143119761Y-98052380D01*
X143167380Y-98076190D01*
X143238809Y-98076190D01*
X143286428Y-98052380D01*
X143310238Y-98028571D01*
X143548333Y-97742857D02*
X143548333Y-98076190D01*
X143548333Y-97790476D02*
X143572142Y-97766666D01*
X143619761Y-97742857D01*
X143691190Y-97742857D01*
X143738809Y-97766666D01*
X143762619Y-97814285D01*
X143762619Y-98076190D01*
X144215000Y-98076190D02*
X144215000Y-97576190D01*
X144215000Y-98052380D02*
X144167380Y-98076190D01*
X144072142Y-98076190D01*
X144024523Y-98052380D01*
X144000714Y-98028571D01*
X143976904Y-97980952D01*
X143976904Y-97838095D01*
X144000714Y-97790476D01*
X144024523Y-97766666D01*
X144072142Y-97742857D01*
X144167380Y-97742857D01*
X144215000Y-97766666D01*
X144643571Y-98052380D02*
X144595952Y-98076190D01*
X144500714Y-98076190D01*
X144453095Y-98052380D01*
X144429285Y-98004761D01*
X144429285Y-97814285D01*
X144453095Y-97766666D01*
X144500714Y-97742857D01*
X144595952Y-97742857D01*
X144643571Y-97766666D01*
X144667380Y-97814285D01*
X144667380Y-97861904D01*
X144429285Y-97909523D01*
X145095952Y-98076190D02*
X145095952Y-97576190D01*
X145095952Y-98052380D02*
X145048333Y-98076190D01*
X144953095Y-98076190D01*
X144905476Y-98052380D01*
X144881666Y-98028571D01*
X144857857Y-97980952D01*
X144857857Y-97838095D01*
X144881666Y-97790476D01*
X144905476Y-97766666D01*
X144953095Y-97742857D01*
X145048333Y-97742857D01*
X145095952Y-97766666D01*
X138762619Y-98592857D02*
X138953095Y-98592857D01*
X138834047Y-98426190D02*
X138834047Y-98854761D01*
X138857857Y-98902380D01*
X138905476Y-98926190D01*
X138953095Y-98926190D01*
X139191190Y-98926190D02*
X139143571Y-98902380D01*
X139119761Y-98878571D01*
X139095952Y-98830952D01*
X139095952Y-98688095D01*
X139119761Y-98640476D01*
X139143571Y-98616666D01*
X139191190Y-98592857D01*
X139262619Y-98592857D01*
X139310238Y-98616666D01*
X139334047Y-98640476D01*
X139357857Y-98688095D01*
X139357857Y-98830952D01*
X139334047Y-98878571D01*
X139310238Y-98902380D01*
X139262619Y-98926190D01*
X139191190Y-98926190D01*
X139953095Y-98426190D02*
X139953095Y-98830952D01*
X139976904Y-98878571D01*
X140000714Y-98902380D01*
X140048333Y-98926190D01*
X140143571Y-98926190D01*
X140191190Y-98902380D01*
X140215000Y-98878571D01*
X140238809Y-98830952D01*
X140238809Y-98426190D01*
X140453095Y-98902380D02*
X140524523Y-98926190D01*
X140643571Y-98926190D01*
X140691190Y-98902380D01*
X140715000Y-98878571D01*
X140738809Y-98830952D01*
X140738809Y-98783333D01*
X140715000Y-98735714D01*
X140691190Y-98711904D01*
X140643571Y-98688095D01*
X140548333Y-98664285D01*
X140500714Y-98640476D01*
X140476904Y-98616666D01*
X140453095Y-98569047D01*
X140453095Y-98521428D01*
X140476904Y-98473809D01*
X140500714Y-98450000D01*
X140548333Y-98426190D01*
X140667380Y-98426190D01*
X140738809Y-98450000D01*
X141119761Y-98664285D02*
X141191190Y-98688095D01*
X141215000Y-98711904D01*
X141238809Y-98759523D01*
X141238809Y-98830952D01*
X141215000Y-98878571D01*
X141191190Y-98902380D01*
X141143571Y-98926190D01*
X140953095Y-98926190D01*
X140953095Y-98426190D01*
X141119761Y-98426190D01*
X141167380Y-98450000D01*
X141191190Y-98473809D01*
X141215000Y-98521428D01*
X141215000Y-98569047D01*
X141191190Y-98616666D01*
X141167380Y-98640476D01*
X141119761Y-98664285D01*
X140953095Y-98664285D01*
X141834047Y-98926190D02*
X141834047Y-98592857D01*
X141834047Y-98640476D02*
X141857857Y-98616666D01*
X141905476Y-98592857D01*
X141976904Y-98592857D01*
X142024523Y-98616666D01*
X142048333Y-98664285D01*
X142048333Y-98926190D01*
X142048333Y-98664285D02*
X142072142Y-98616666D01*
X142119761Y-98592857D01*
X142191190Y-98592857D01*
X142238809Y-98616666D01*
X142262619Y-98664285D01*
X142262619Y-98926190D01*
X142691190Y-98902380D02*
X142643571Y-98926190D01*
X142548333Y-98926190D01*
X142500714Y-98902380D01*
X142476904Y-98854761D01*
X142476904Y-98664285D01*
X142500714Y-98616666D01*
X142548333Y-98592857D01*
X142643571Y-98592857D01*
X142691190Y-98616666D01*
X142715000Y-98664285D01*
X142715000Y-98711904D01*
X142476904Y-98759523D01*
X142857857Y-98592857D02*
X143048333Y-98592857D01*
X142929285Y-98426190D02*
X142929285Y-98854761D01*
X142953095Y-98902380D01*
X143000714Y-98926190D01*
X143048333Y-98926190D01*
X143429285Y-98926190D02*
X143429285Y-98664285D01*
X143405476Y-98616666D01*
X143357857Y-98592857D01*
X143262619Y-98592857D01*
X143215000Y-98616666D01*
X143429285Y-98902380D02*
X143381666Y-98926190D01*
X143262619Y-98926190D01*
X143215000Y-98902380D01*
X143191190Y-98854761D01*
X143191190Y-98807142D01*
X143215000Y-98759523D01*
X143262619Y-98735714D01*
X143381666Y-98735714D01*
X143429285Y-98711904D01*
X143738809Y-98926190D02*
X143691190Y-98902380D01*
X143667380Y-98854761D01*
X143667380Y-98426190D01*
X138834047Y-99776190D02*
X138834047Y-99276190D01*
X139048333Y-99776190D02*
X139048333Y-99514285D01*
X139024523Y-99466666D01*
X138976904Y-99442857D01*
X138905476Y-99442857D01*
X138857857Y-99466666D01*
X138834047Y-99490476D01*
X139357857Y-99776190D02*
X139310238Y-99752380D01*
X139286428Y-99728571D01*
X139262619Y-99680952D01*
X139262619Y-99538095D01*
X139286428Y-99490476D01*
X139310238Y-99466666D01*
X139357857Y-99442857D01*
X139429285Y-99442857D01*
X139476904Y-99466666D01*
X139500714Y-99490476D01*
X139524523Y-99538095D01*
X139524523Y-99680952D01*
X139500714Y-99728571D01*
X139476904Y-99752380D01*
X139429285Y-99776190D01*
X139357857Y-99776190D01*
X139953095Y-99442857D02*
X139953095Y-99776190D01*
X139738809Y-99442857D02*
X139738809Y-99704761D01*
X139762619Y-99752380D01*
X139810238Y-99776190D01*
X139881666Y-99776190D01*
X139929285Y-99752380D01*
X139953095Y-99728571D01*
X140167380Y-99752380D02*
X140215000Y-99776190D01*
X140310238Y-99776190D01*
X140357857Y-99752380D01*
X140381666Y-99704761D01*
X140381666Y-99680952D01*
X140357857Y-99633333D01*
X140310238Y-99609523D01*
X140238809Y-99609523D01*
X140191190Y-99585714D01*
X140167380Y-99538095D01*
X140167380Y-99514285D01*
X140191190Y-99466666D01*
X140238809Y-99442857D01*
X140310238Y-99442857D01*
X140357857Y-99466666D01*
X140595952Y-99776190D02*
X140595952Y-99442857D01*
X140595952Y-99276190D02*
X140572142Y-99300000D01*
X140595952Y-99323809D01*
X140619761Y-99300000D01*
X140595952Y-99276190D01*
X140595952Y-99323809D01*
X140834047Y-99442857D02*
X140834047Y-99776190D01*
X140834047Y-99490476D02*
X140857857Y-99466666D01*
X140905476Y-99442857D01*
X140976904Y-99442857D01*
X141024523Y-99466666D01*
X141048333Y-99514285D01*
X141048333Y-99776190D01*
X141500714Y-99442857D02*
X141500714Y-99847619D01*
X141476904Y-99895238D01*
X141453095Y-99919047D01*
X141405476Y-99942857D01*
X141334047Y-99942857D01*
X141286428Y-99919047D01*
X141500714Y-99752380D02*
X141453095Y-99776190D01*
X141357857Y-99776190D01*
X141310238Y-99752380D01*
X141286428Y-99728571D01*
X141262619Y-99680952D01*
X141262619Y-99538095D01*
X141286428Y-99490476D01*
X141310238Y-99466666D01*
X141357857Y-99442857D01*
X141453095Y-99442857D01*
X141500714Y-99466666D01*
X148452380Y-98950000D02*
X148404761Y-98926190D01*
X148333333Y-98926190D01*
X148261904Y-98950000D01*
X148214285Y-98997619D01*
X148190476Y-99045238D01*
X148166666Y-99140476D01*
X148166666Y-99211904D01*
X148190476Y-99307142D01*
X148214285Y-99354761D01*
X148261904Y-99402380D01*
X148333333Y-99426190D01*
X148380952Y-99426190D01*
X148452380Y-99402380D01*
X148476190Y-99378571D01*
X148476190Y-99211904D01*
X148380952Y-99211904D01*
X148690476Y-99426190D02*
X148690476Y-98926190D01*
X148976190Y-99426190D01*
X148976190Y-98926190D01*
X149214285Y-99426190D02*
X149214285Y-98926190D01*
X149333333Y-98926190D01*
X149404761Y-98950000D01*
X149452380Y-98997619D01*
X149476190Y-99045238D01*
X149500000Y-99140476D01*
X149500000Y-99211904D01*
X149476190Y-99307142D01*
X149452380Y-99354761D01*
X149404761Y-99402380D01*
X149333333Y-99426190D01*
X149214285Y-99426190D01*
X149904761Y-99402380D02*
X149857142Y-99426190D01*
X149761904Y-99426190D01*
X149714285Y-99402380D01*
X149690476Y-99354761D01*
X149690476Y-99164285D01*
X149714285Y-99116666D01*
X149761904Y-99092857D01*
X149857142Y-99092857D01*
X149904761Y-99116666D01*
X149928571Y-99164285D01*
X149928571Y-99211904D01*
X149690476Y-99259523D01*
X150357142Y-99426190D02*
X150357142Y-98926190D01*
X150357142Y-99402380D02*
X150309523Y-99426190D01*
X150214285Y-99426190D01*
X150166666Y-99402380D01*
X150142857Y-99378571D01*
X150119047Y-99330952D01*
X150119047Y-99188095D01*
X150142857Y-99140476D01*
X150166666Y-99116666D01*
X150214285Y-99092857D01*
X150309523Y-99092857D01*
X150357142Y-99116666D01*
X150928571Y-99092857D02*
X151047619Y-99426190D01*
X151166666Y-99092857D01*
X151357142Y-99426190D02*
X151357142Y-99092857D01*
X151357142Y-98926190D02*
X151333333Y-98950000D01*
X151357142Y-98973809D01*
X151380952Y-98950000D01*
X151357142Y-98926190D01*
X151357142Y-98973809D01*
X151809523Y-99426190D02*
X151809523Y-99164285D01*
X151785714Y-99116666D01*
X151738095Y-99092857D01*
X151642857Y-99092857D01*
X151595238Y-99116666D01*
X151809523Y-99402380D02*
X151761904Y-99426190D01*
X151642857Y-99426190D01*
X151595238Y-99402380D01*
X151571428Y-99354761D01*
X151571428Y-99307142D01*
X151595238Y-99259523D01*
X151642857Y-99235714D01*
X151761904Y-99235714D01*
X151809523Y-99211904D01*
X148333333Y-100252380D02*
X148285714Y-100276190D01*
X148190476Y-100276190D01*
X148142857Y-100252380D01*
X148119047Y-100228571D01*
X148095238Y-100180952D01*
X148095238Y-100038095D01*
X148119047Y-99990476D01*
X148142857Y-99966666D01*
X148190476Y-99942857D01*
X148285714Y-99942857D01*
X148333333Y-99966666D01*
X148619047Y-100276190D02*
X148571428Y-100252380D01*
X148547619Y-100228571D01*
X148523809Y-100180952D01*
X148523809Y-100038095D01*
X148547619Y-99990476D01*
X148571428Y-99966666D01*
X148619047Y-99942857D01*
X148690476Y-99942857D01*
X148738095Y-99966666D01*
X148761904Y-99990476D01*
X148785714Y-100038095D01*
X148785714Y-100180952D01*
X148761904Y-100228571D01*
X148738095Y-100252380D01*
X148690476Y-100276190D01*
X148619047Y-100276190D01*
X149000000Y-99942857D02*
X149000000Y-100276190D01*
X149000000Y-99990476D02*
X149023809Y-99966666D01*
X149071428Y-99942857D01*
X149142857Y-99942857D01*
X149190476Y-99966666D01*
X149214285Y-100014285D01*
X149214285Y-100276190D01*
X149666666Y-100276190D02*
X149666666Y-99776190D01*
X149666666Y-100252380D02*
X149619047Y-100276190D01*
X149523809Y-100276190D01*
X149476190Y-100252380D01*
X149452380Y-100228571D01*
X149428571Y-100180952D01*
X149428571Y-100038095D01*
X149452380Y-99990476D01*
X149476190Y-99966666D01*
X149523809Y-99942857D01*
X149619047Y-99942857D01*
X149666666Y-99966666D01*
X150119047Y-99942857D02*
X150119047Y-100276190D01*
X149904761Y-99942857D02*
X149904761Y-100204761D01*
X149928571Y-100252380D01*
X149976190Y-100276190D01*
X150047619Y-100276190D01*
X150095238Y-100252380D01*
X150119047Y-100228571D01*
X150571428Y-100252380D02*
X150523809Y-100276190D01*
X150428571Y-100276190D01*
X150380952Y-100252380D01*
X150357142Y-100228571D01*
X150333333Y-100180952D01*
X150333333Y-100038095D01*
X150357142Y-99990476D01*
X150380952Y-99966666D01*
X150428571Y-99942857D01*
X150523809Y-99942857D01*
X150571428Y-99966666D01*
X150714285Y-99942857D02*
X150904761Y-99942857D01*
X150785714Y-99776190D02*
X150785714Y-100204761D01*
X150809523Y-100252380D01*
X150857142Y-100276190D01*
X150904761Y-100276190D01*
X151071428Y-100276190D02*
X151071428Y-99942857D01*
X151071428Y-99776190D02*
X151047619Y-99800000D01*
X151071428Y-99823809D01*
X151095238Y-99800000D01*
X151071428Y-99776190D01*
X151071428Y-99823809D01*
X151261904Y-99942857D02*
X151380952Y-100276190D01*
X151500000Y-99942857D01*
X151880952Y-100252380D02*
X151833333Y-100276190D01*
X151738095Y-100276190D01*
X151690476Y-100252380D01*
X151666666Y-100204761D01*
X151666666Y-100014285D01*
X151690476Y-99966666D01*
X151738095Y-99942857D01*
X151833333Y-99942857D01*
X151880952Y-99966666D01*
X151904761Y-100014285D01*
X151904761Y-100061904D01*
X151666666Y-100109523D01*
X148714285Y-101126190D02*
X148714285Y-100864285D01*
X148690476Y-100816666D01*
X148642857Y-100792857D01*
X148547619Y-100792857D01*
X148500000Y-100816666D01*
X148714285Y-101102380D02*
X148666666Y-101126190D01*
X148547619Y-101126190D01*
X148500000Y-101102380D01*
X148476190Y-101054761D01*
X148476190Y-101007142D01*
X148500000Y-100959523D01*
X148547619Y-100935714D01*
X148666666Y-100935714D01*
X148714285Y-100911904D01*
X149166666Y-101126190D02*
X149166666Y-100626190D01*
X149166666Y-101102380D02*
X149119047Y-101126190D01*
X149023809Y-101126190D01*
X148976190Y-101102380D01*
X148952380Y-101078571D01*
X148928571Y-101030952D01*
X148928571Y-100888095D01*
X148952380Y-100840476D01*
X148976190Y-100816666D01*
X149023809Y-100792857D01*
X149119047Y-100792857D01*
X149166666Y-100816666D01*
X149404761Y-101126190D02*
X149404761Y-100626190D01*
X149619047Y-101126190D02*
X149619047Y-100864285D01*
X149595238Y-100816666D01*
X149547619Y-100792857D01*
X149476190Y-100792857D01*
X149428571Y-100816666D01*
X149404761Y-100840476D01*
X150047619Y-101102380D02*
X150000000Y-101126190D01*
X149904761Y-101126190D01*
X149857142Y-101102380D01*
X149833333Y-101054761D01*
X149833333Y-100864285D01*
X149857142Y-100816666D01*
X149904761Y-100792857D01*
X150000000Y-100792857D01*
X150047619Y-100816666D01*
X150071428Y-100864285D01*
X150071428Y-100911904D01*
X149833333Y-100959523D01*
X150261904Y-101102380D02*
X150309523Y-101126190D01*
X150404761Y-101126190D01*
X150452380Y-101102380D01*
X150476190Y-101054761D01*
X150476190Y-101030952D01*
X150452380Y-100983333D01*
X150404761Y-100959523D01*
X150333333Y-100959523D01*
X150285714Y-100935714D01*
X150261904Y-100888095D01*
X150261904Y-100864285D01*
X150285714Y-100816666D01*
X150333333Y-100792857D01*
X150404761Y-100792857D01*
X150452380Y-100816666D01*
X150690476Y-101126190D02*
X150690476Y-100792857D01*
X150690476Y-100626190D02*
X150666666Y-100650000D01*
X150690476Y-100673809D01*
X150714285Y-100650000D01*
X150690476Y-100626190D01*
X150690476Y-100673809D01*
X150880952Y-100792857D02*
X151000000Y-101126190D01*
X151119047Y-100792857D01*
X151500000Y-101102380D02*
X151452380Y-101126190D01*
X151357142Y-101126190D01*
X151309523Y-101102380D01*
X151285714Y-101054761D01*
X151285714Y-100864285D01*
X151309523Y-100816666D01*
X151357142Y-100792857D01*
X151452380Y-100792857D01*
X151500000Y-100816666D01*
X151523809Y-100864285D01*
X151523809Y-100911904D01*
X151285714Y-100959523D01*
X141435714Y-93782142D02*
X141650000Y-93853571D01*
X142007142Y-93853571D01*
X142150000Y-93782142D01*
X142221428Y-93710714D01*
X142292857Y-93567857D01*
X142292857Y-93425000D01*
X142221428Y-93282142D01*
X142150000Y-93210714D01*
X142007142Y-93139285D01*
X141721428Y-93067857D01*
X141578571Y-92996428D01*
X141507142Y-92925000D01*
X141435714Y-92782142D01*
X141435714Y-92639285D01*
X141507142Y-92496428D01*
X141578571Y-92425000D01*
X141721428Y-92353571D01*
X142078571Y-92353571D01*
X142292857Y-92425000D01*
X142721428Y-92853571D02*
X143292857Y-92853571D01*
X142935714Y-92353571D02*
X142935714Y-93639285D01*
X143007142Y-93782142D01*
X143150000Y-93853571D01*
X143292857Y-93853571D01*
X144435714Y-93853571D02*
X144435714Y-93067857D01*
X144364285Y-92925000D01*
X144221428Y-92853571D01*
X143935714Y-92853571D01*
X143792857Y-92925000D01*
X144435714Y-93782142D02*
X144292857Y-93853571D01*
X143935714Y-93853571D01*
X143792857Y-93782142D01*
X143721428Y-93639285D01*
X143721428Y-93496428D01*
X143792857Y-93353571D01*
X143935714Y-93282142D01*
X144292857Y-93282142D01*
X144435714Y-93210714D01*
X145150000Y-93853571D02*
X145150000Y-92853571D01*
X145150000Y-92353571D02*
X145078571Y-92425000D01*
X145150000Y-92496428D01*
X145221428Y-92425000D01*
X145150000Y-92353571D01*
X145150000Y-92496428D01*
X145864285Y-92853571D02*
X145864285Y-93853571D01*
X145864285Y-92996428D02*
X145935714Y-92925000D01*
X146078571Y-92853571D01*
X146292857Y-92853571D01*
X146435714Y-92925000D01*
X146507142Y-93067857D01*
X146507142Y-93853571D01*
X147435714Y-93853571D02*
X147292857Y-93782142D01*
X147221428Y-93639285D01*
X147221428Y-92353571D01*
X148578571Y-93782142D02*
X148435714Y-93853571D01*
X148150000Y-93853571D01*
X148007142Y-93782142D01*
X147935714Y-93639285D01*
X147935714Y-93067857D01*
X148007142Y-92925000D01*
X148150000Y-92853571D01*
X148435714Y-92853571D01*
X148578571Y-92925000D01*
X148650000Y-93067857D01*
X148650000Y-93210714D01*
X147935714Y-93353571D01*
X149221428Y-93782142D02*
X149364285Y-93853571D01*
X149650000Y-93853571D01*
X149792857Y-93782142D01*
X149864285Y-93639285D01*
X149864285Y-93567857D01*
X149792857Y-93425000D01*
X149650000Y-93353571D01*
X149435714Y-93353571D01*
X149292857Y-93282142D01*
X149221428Y-93139285D01*
X149221428Y-93067857D01*
X149292857Y-92925000D01*
X149435714Y-92853571D01*
X149650000Y-92853571D01*
X149792857Y-92925000D01*
X150435714Y-93782142D02*
X150578571Y-93853571D01*
X150864285Y-93853571D01*
X151007142Y-93782142D01*
X151078571Y-93639285D01*
X151078571Y-93567857D01*
X151007142Y-93425000D01*
X150864285Y-93353571D01*
X150650000Y-93353571D01*
X150507142Y-93282142D01*
X150435714Y-93139285D01*
X150435714Y-93067857D01*
X150507142Y-92925000D01*
X150650000Y-92853571D01*
X150864285Y-92853571D01*
X151007142Y-92925000D01*
X152792857Y-93782142D02*
X153007142Y-93853571D01*
X153364285Y-93853571D01*
X153507142Y-93782142D01*
X153578571Y-93710714D01*
X153650000Y-93567857D01*
X153650000Y-93425000D01*
X153578571Y-93282142D01*
X153507142Y-93210714D01*
X153364285Y-93139285D01*
X153078571Y-93067857D01*
X152935714Y-92996428D01*
X152864285Y-92925000D01*
X152792857Y-92782142D01*
X152792857Y-92639285D01*
X152864285Y-92496428D01*
X152935714Y-92425000D01*
X153078571Y-92353571D01*
X153435714Y-92353571D01*
X153650000Y-92425000D01*
X154078571Y-92853571D02*
X154650000Y-92853571D01*
X154292857Y-92353571D02*
X154292857Y-93639285D01*
X154364285Y-93782142D01*
X154507142Y-93853571D01*
X154650000Y-93853571D01*
X155721428Y-93782142D02*
X155578571Y-93853571D01*
X155292857Y-93853571D01*
X155150000Y-93782142D01*
X155078571Y-93639285D01*
X155078571Y-93067857D01*
X155150000Y-92925000D01*
X155292857Y-92853571D01*
X155578571Y-92853571D01*
X155721428Y-92925000D01*
X155792857Y-93067857D01*
X155792857Y-93210714D01*
X155078571Y-93353571D01*
X157007142Y-93782142D02*
X156864285Y-93853571D01*
X156578571Y-93853571D01*
X156435714Y-93782142D01*
X156364285Y-93639285D01*
X156364285Y-93067857D01*
X156435714Y-92925000D01*
X156578571Y-92853571D01*
X156864285Y-92853571D01*
X157007142Y-92925000D01*
X157078571Y-93067857D01*
X157078571Y-93210714D01*
X156364285Y-93353571D01*
X157935714Y-93853571D02*
X157792857Y-93782142D01*
X157721428Y-93639285D01*
X157721428Y-92353571D01*
X145150000Y-96132142D02*
X145364285Y-96203571D01*
X145721428Y-96203571D01*
X145864285Y-96132142D01*
X145935714Y-96060714D01*
X146007142Y-95917857D01*
X146007142Y-95775000D01*
X145935714Y-95632142D01*
X145864285Y-95560714D01*
X145721428Y-95489285D01*
X145435714Y-95417857D01*
X145292857Y-95346428D01*
X145221428Y-95275000D01*
X145150000Y-95132142D01*
X145150000Y-94989285D01*
X145221428Y-94846428D01*
X145292857Y-94775000D01*
X145435714Y-94703571D01*
X145792857Y-94703571D01*
X146007142Y-94775000D01*
X146435714Y-95203571D02*
X147007142Y-95203571D01*
X146650000Y-94703571D02*
X146650000Y-95989285D01*
X146721428Y-96132142D01*
X146864285Y-96203571D01*
X147007142Y-96203571D01*
X147507142Y-96203571D02*
X147507142Y-95203571D01*
X147507142Y-94703571D02*
X147435714Y-94775000D01*
X147507142Y-94846428D01*
X147578571Y-94775000D01*
X147507142Y-94703571D01*
X147507142Y-94846428D01*
X148007142Y-95203571D02*
X148578571Y-95203571D01*
X148221428Y-96203571D02*
X148221428Y-94917857D01*
X148292857Y-94775000D01*
X148435714Y-94703571D01*
X148578571Y-94703571D01*
X148864285Y-95203571D02*
X149435714Y-95203571D01*
X149078571Y-96203571D02*
X149078571Y-94917857D01*
X149150000Y-94775000D01*
X149292857Y-94703571D01*
X149435714Y-94703571D01*
X150507142Y-96132142D02*
X150364285Y-96203571D01*
X150078571Y-96203571D01*
X149935714Y-96132142D01*
X149864285Y-95989285D01*
X149864285Y-95417857D01*
X149935714Y-95275000D01*
X150078571Y-95203571D01*
X150364285Y-95203571D01*
X150507142Y-95275000D01*
X150578571Y-95417857D01*
X150578571Y-95560714D01*
X149864285Y-95703571D01*
X151221428Y-95203571D02*
X151221428Y-96203571D01*
X151221428Y-95346428D02*
X151292857Y-95275000D01*
X151435714Y-95203571D01*
X151650000Y-95203571D01*
X151792857Y-95275000D01*
X151864285Y-95417857D01*
X151864285Y-96203571D01*
X153150000Y-96132142D02*
X153007142Y-96203571D01*
X152721428Y-96203571D01*
X152578571Y-96132142D01*
X152507142Y-95989285D01*
X152507142Y-95417857D01*
X152578571Y-95275000D01*
X152721428Y-95203571D01*
X153007142Y-95203571D01*
X153150000Y-95275000D01*
X153221428Y-95417857D01*
X153221428Y-95560714D01*
X152507142Y-95703571D01*
X153864285Y-96203571D02*
X153864285Y-95203571D01*
X153864285Y-95489285D02*
X153935714Y-95346428D01*
X154007142Y-95275000D01*
X154150000Y-95203571D01*
X154292857Y-95203571D01*
D11*
X148443000Y-91160000D02*
G75*
G02X146893000Y-89610000I0J1550000D01*
G01*
X146893000Y-88238424D02*
X146893000Y-89610000D01*
X146893000Y-111781576D02*
G75*
G02X146893000Y-88238424I2800000J11771576D01*
G01*
X146893000Y-110410000D02*
X146893000Y-111781575D01*
X146892999Y-110410000D02*
G75*
G02X147346984Y-109313984I1550001J0D01*
G01*
X153093000Y-103567968D02*
X147346984Y-109313984D01*
X161258070Y-103567968D02*
X153093000Y-103567968D01*
X161728437Y-101258291D02*
G75*
G02X161258070Y-103567968I-12035437J1248292D01*
G01*
X161728438Y-101258291D02*
G75*
G02X161269733Y-100760000I41295J498292D01*
G01*
X161269733Y-99260000D02*
X161269733Y-100760000D01*
X161269733Y-99260000D02*
G75*
G02X161728437Y-98761708I500000J0D01*
G01*
X153092999Y-88397508D02*
G75*
G02X161728437Y-98761708I-3399999J-11612492D01*
G01*
X153092999Y-89610000D02*
X153093000Y-88397506D01*
X153092999Y-89610000D02*
G75*
G02X151543000Y-91159999I-1549999J0D01*
G01*
X148443000Y-91160000D02*
X151543000Y-91159999D01*
M02*
