G04 #@! TF.GenerationSoftware,KiCad,Pcbnew,(5.1.5-0-10_14)*
G04 #@! TF.CreationDate,2020-08-04T13:19:53-04:00*
G04 #@! TF.ProjectId,shio,7368696f-2e6b-4696-9361-645f70636258,rev?*
G04 #@! TF.SameCoordinates,Original*
G04 #@! TF.FileFunction,Soldermask,Bot*
G04 #@! TF.FilePolarity,Negative*
%FSLAX46Y46*%
G04 Gerber Fmt 4.6, Leading zero omitted, Abs format (unit mm)*
G04 Created by KiCad (PCBNEW (5.1.5-0-10_14)) date 2020-08-04 13:19:53*
%MOMM*%
%LPD*%
G04 APERTURE LIST*
%ADD10C,0.100000*%
G04 APERTURE END LIST*
D10*
G36*
X151977318Y-109245153D02*
G01*
X152195885Y-109335687D01*
X152195887Y-109335688D01*
X152392593Y-109467122D01*
X152559878Y-109634407D01*
X152691312Y-109831113D01*
X152691313Y-109831115D01*
X152781847Y-110049682D01*
X152828000Y-110281710D01*
X152828000Y-110518290D01*
X152781847Y-110750318D01*
X152691313Y-110968885D01*
X152691312Y-110968887D01*
X152559878Y-111165593D01*
X152392593Y-111332878D01*
X152195887Y-111464312D01*
X152195886Y-111464313D01*
X152195885Y-111464313D01*
X151977318Y-111554847D01*
X151745290Y-111601000D01*
X151508710Y-111601000D01*
X151276682Y-111554847D01*
X151058115Y-111464313D01*
X151058114Y-111464313D01*
X151058113Y-111464312D01*
X150861407Y-111332878D01*
X150694122Y-111165593D01*
X150562688Y-110968887D01*
X150562687Y-110968885D01*
X150472153Y-110750318D01*
X150426000Y-110518290D01*
X150426000Y-110281710D01*
X150472153Y-110049682D01*
X150562687Y-109831115D01*
X150562688Y-109831113D01*
X150694122Y-109634407D01*
X150861407Y-109467122D01*
X151058113Y-109335688D01*
X151058115Y-109335687D01*
X151276682Y-109245153D01*
X151508710Y-109199000D01*
X151745290Y-109199000D01*
X151977318Y-109245153D01*
G37*
G36*
X148850318Y-109245153D02*
G01*
X149068885Y-109335687D01*
X149068887Y-109335688D01*
X149265593Y-109467122D01*
X149432878Y-109634407D01*
X149564312Y-109831113D01*
X149564313Y-109831115D01*
X149654847Y-110049682D01*
X149701000Y-110281710D01*
X149701000Y-110518290D01*
X149654847Y-110750318D01*
X149564313Y-110968885D01*
X149564312Y-110968887D01*
X149432878Y-111165593D01*
X149265593Y-111332878D01*
X149068887Y-111464312D01*
X149068886Y-111464313D01*
X149068885Y-111464313D01*
X148850318Y-111554847D01*
X148618290Y-111601000D01*
X148381710Y-111601000D01*
X148149682Y-111554847D01*
X147931115Y-111464313D01*
X147931114Y-111464313D01*
X147931113Y-111464312D01*
X147734407Y-111332878D01*
X147567122Y-111165593D01*
X147435688Y-110968887D01*
X147435687Y-110968885D01*
X147345153Y-110750318D01*
X147299000Y-110518290D01*
X147299000Y-110281710D01*
X147345153Y-110049682D01*
X147435687Y-109831115D01*
X147435688Y-109831113D01*
X147567122Y-109634407D01*
X147734407Y-109467122D01*
X147931113Y-109335688D01*
X147931115Y-109335687D01*
X148149682Y-109245153D01*
X148381710Y-109199000D01*
X148618290Y-109199000D01*
X148850318Y-109245153D01*
G37*
G36*
X139948213Y-102806249D02*
G01*
X140042652Y-102834897D01*
X140129687Y-102881418D01*
X140205975Y-102944025D01*
X140268582Y-103020313D01*
X140315103Y-103107348D01*
X140343751Y-103201787D01*
X140353424Y-103300000D01*
X140343751Y-103398213D01*
X140315103Y-103492652D01*
X140268582Y-103579687D01*
X140205975Y-103655975D01*
X140129687Y-103718582D01*
X140042652Y-103765103D01*
X139948213Y-103793751D01*
X139874612Y-103801000D01*
X139125388Y-103801000D01*
X139051787Y-103793751D01*
X138957348Y-103765103D01*
X138870313Y-103718582D01*
X138794025Y-103655975D01*
X138731418Y-103579687D01*
X138684897Y-103492652D01*
X138656249Y-103398213D01*
X138646576Y-103300000D01*
X138656249Y-103201787D01*
X138684897Y-103107348D01*
X138731418Y-103020313D01*
X138794025Y-102944025D01*
X138870313Y-102881418D01*
X138957348Y-102834897D01*
X139051787Y-102806249D01*
X139125388Y-102799000D01*
X139874612Y-102799000D01*
X139948213Y-102806249D01*
G37*
G36*
X152300000Y-102300000D02*
G01*
X147700000Y-102300000D01*
X147700000Y-97700000D01*
X152300000Y-97700000D01*
X152300000Y-102300000D01*
G37*
G36*
X186464672Y-99668449D02*
G01*
X186464674Y-99668450D01*
X186464675Y-99668450D01*
X186533103Y-99696793D01*
X186594686Y-99737942D01*
X186647058Y-99790314D01*
X186688207Y-99851897D01*
X186716550Y-99920325D01*
X186731000Y-99992967D01*
X186731000Y-100067033D01*
X186716550Y-100139675D01*
X186688207Y-100208103D01*
X186647058Y-100269686D01*
X186594686Y-100322058D01*
X186533103Y-100363207D01*
X186464675Y-100391550D01*
X186464674Y-100391550D01*
X186464672Y-100391551D01*
X186392034Y-100406000D01*
X186317966Y-100406000D01*
X186245328Y-100391551D01*
X186245326Y-100391550D01*
X186245325Y-100391550D01*
X186176897Y-100363207D01*
X186115314Y-100322058D01*
X186062942Y-100269686D01*
X186021793Y-100208103D01*
X185993450Y-100139675D01*
X185979000Y-100067033D01*
X185979000Y-99992967D01*
X185993450Y-99920325D01*
X186021793Y-99851897D01*
X186062942Y-99790314D01*
X186115314Y-99737942D01*
X186176897Y-99696793D01*
X186245325Y-99668450D01*
X186245326Y-99668450D01*
X186245328Y-99668449D01*
X186317966Y-99654000D01*
X186392034Y-99654000D01*
X186464672Y-99668449D01*
G37*
G36*
X139948213Y-96206249D02*
G01*
X140042652Y-96234897D01*
X140129687Y-96281418D01*
X140205975Y-96344025D01*
X140268582Y-96420313D01*
X140315103Y-96507348D01*
X140343751Y-96601787D01*
X140353424Y-96700000D01*
X140343751Y-96798213D01*
X140315103Y-96892652D01*
X140268582Y-96979687D01*
X140205975Y-97055975D01*
X140129687Y-97118582D01*
X140042652Y-97165103D01*
X139948213Y-97193751D01*
X139874612Y-97201000D01*
X139125388Y-97201000D01*
X139051787Y-97193751D01*
X138957348Y-97165103D01*
X138870313Y-97118582D01*
X138794025Y-97055975D01*
X138731418Y-96979687D01*
X138684897Y-96892652D01*
X138656249Y-96798213D01*
X138646576Y-96700000D01*
X138656249Y-96601787D01*
X138684897Y-96507348D01*
X138731418Y-96420313D01*
X138794025Y-96344025D01*
X138870313Y-96281418D01*
X138957348Y-96234897D01*
X139051787Y-96206249D01*
X139125388Y-96199000D01*
X139874612Y-96199000D01*
X139948213Y-96206249D01*
G37*
G36*
X151950318Y-88445153D02*
G01*
X152168885Y-88535687D01*
X152168887Y-88535688D01*
X152365593Y-88667122D01*
X152532878Y-88834407D01*
X152664312Y-89031113D01*
X152664313Y-89031115D01*
X152754847Y-89249682D01*
X152801000Y-89481710D01*
X152801000Y-89718290D01*
X152754847Y-89950318D01*
X152664313Y-90168885D01*
X152664312Y-90168887D01*
X152532878Y-90365593D01*
X152365593Y-90532878D01*
X152168887Y-90664312D01*
X152168886Y-90664313D01*
X152168885Y-90664313D01*
X151950318Y-90754847D01*
X151718290Y-90801000D01*
X151481710Y-90801000D01*
X151249682Y-90754847D01*
X151031115Y-90664313D01*
X151031114Y-90664313D01*
X151031113Y-90664312D01*
X150834407Y-90532878D01*
X150667122Y-90365593D01*
X150535688Y-90168887D01*
X150535687Y-90168885D01*
X150445153Y-89950318D01*
X150399000Y-89718290D01*
X150399000Y-89481710D01*
X150445153Y-89249682D01*
X150535687Y-89031115D01*
X150535688Y-89031113D01*
X150667122Y-88834407D01*
X150834407Y-88667122D01*
X151031113Y-88535688D01*
X151031115Y-88535687D01*
X151249682Y-88445153D01*
X151481710Y-88399000D01*
X151718290Y-88399000D01*
X151950318Y-88445153D01*
G37*
G36*
X148850318Y-88445153D02*
G01*
X149068885Y-88535687D01*
X149068887Y-88535688D01*
X149265593Y-88667122D01*
X149432878Y-88834407D01*
X149564312Y-89031113D01*
X149564313Y-89031115D01*
X149654847Y-89249682D01*
X149701000Y-89481710D01*
X149701000Y-89718290D01*
X149654847Y-89950318D01*
X149564313Y-90168885D01*
X149564312Y-90168887D01*
X149432878Y-90365593D01*
X149265593Y-90532878D01*
X149068887Y-90664312D01*
X149068886Y-90664313D01*
X149068885Y-90664313D01*
X148850318Y-90754847D01*
X148618290Y-90801000D01*
X148381710Y-90801000D01*
X148149682Y-90754847D01*
X147931115Y-90664313D01*
X147931114Y-90664313D01*
X147931113Y-90664312D01*
X147734407Y-90532878D01*
X147567122Y-90365593D01*
X147435688Y-90168887D01*
X147435687Y-90168885D01*
X147345153Y-89950318D01*
X147299000Y-89718290D01*
X147299000Y-89481710D01*
X147345153Y-89249682D01*
X147435687Y-89031115D01*
X147435688Y-89031113D01*
X147567122Y-88834407D01*
X147734407Y-88667122D01*
X147931113Y-88535688D01*
X147931115Y-88535687D01*
X148149682Y-88445153D01*
X148381710Y-88399000D01*
X148618290Y-88399000D01*
X148850318Y-88445153D01*
G37*
M02*
