M48
INCH,TZ
T1C0.0059
T2C0.0197
T3C0.0394
%
G90
G05
T1
X54900Y-41254
X55181Y-41382
X55333Y-36970
X55417Y-41476
X55461Y-37492
X55732Y-41161
X55972Y-38839
X56634Y-39028
X56967Y-41494
X57207Y-40148
X57315Y-40404
X57461Y-41287
X57517Y-38862
X57522Y-40319
X57598Y-36465
X57626Y-41169
X57701Y-37807
X57752Y-40232
X57766Y-40758
X57766Y-40894
X57766Y-41445
X57854Y-42183
X57904Y-40758
X57904Y-41447
X57904Y-41722
X57964Y-37295
X58041Y-40758
X58041Y-41030
X58041Y-41171
X58041Y-41309
X58122Y-39961
X58165Y-40469
X58179Y-40758
X58179Y-41033
X58179Y-41171
X58179Y-41309
X58179Y-41585
X58201Y-36837
X58227Y-37098
X58317Y-40758
X58317Y-41033
X58317Y-41305
X58317Y-41722
X58321Y-41171
X58335Y-40469
X58455Y-40620
X58455Y-40758
X58455Y-41722
X58480Y-37104
X58593Y-40620
X58593Y-40898
X58593Y-41033
X58593Y-41171
X58593Y-41309
X58593Y-41722
X58720Y-42197
X58730Y-40620
X58730Y-40758
X58730Y-41309
X58730Y-41447
X58730Y-41722
X58732Y-41173
X58770Y-39547
X58823Y-37220
X58868Y-41447
X58868Y-41860
X58868Y-41033
X58988Y-37240
X59008Y-40260
X59028Y-40661
X59055Y-41378
X59071Y-41602
X59144Y-41207
X59173Y-39543
X59175Y-39165
X59240Y-40559
X59270Y-37785
X59291Y-38189
X59376Y-37236
X59526Y-42175
X59579Y-39543
X59732Y-41902
X59856Y-40982
X59862Y-40685
X60118Y-37819
X60134Y-40346
X60173Y-36406
X60488Y-39630
X60563Y-38016
X60646Y-38445
X60654Y-38276
X60884Y-38680
X61037Y-37490
X61080Y-38003
X61181Y-40480
X61183Y-38621
X61437Y-36923
X61445Y-36183
X61543Y-40713
X61886Y-37490
X61996Y-38448
X62219Y-38400
X62469Y-37490
X62555Y-38398
X62559Y-40020
X62693Y-39868
X62831Y-39246
X63024Y-39691
X63031Y-40012
X63031Y-39246
X63061Y-38791
X63164Y-37860
X63254Y-39906
X63311Y-39693
X63326Y-38997
X70881Y-39266
X70959Y-39876
X71043Y-38821
X71142Y-39252
X71299Y-39882
X72552Y-39052
X72552Y-39712
X72866Y-39047
T3
X58465Y-35276
X58465Y-43465
X59685Y-35276
X59696Y-43465
T2
G00X55059Y-38071
M15
G01X54783Y-38071
M16
G05
G00X55059Y-40669
M15
G01X54783Y-40669
M16
G05
T0
M30
